<?xml version="1.0" standalone="no"?><!DOCTYPE svg PUBLIC "-//W3C//DTD SVG 1.1//EN" "http://www.w3.org/Graphics/SVG/1.1/DTD/svg11.dtd"><svg stroke-width="1.5" id="Layer_1" data-name="Layer 1" viewBox="0 0 24 24" version="1.1" xmlns="http://www.w3.org/2000/svg" xmlns:xlink="http://www.w3.org/1999/xlink"><defs><style>.cls-a976vz9jr2mbaw4q6vbmjj-1{fill:none;stroke:#000000;stroke-miterlimit:10;;}</style></defs><line class="cls-a976vz9jr2mbaw4q6vbmjj-1" x1="12" y1="0.5" x2="12" y2="2.42"/><line class="cls-a976vz9jr2mbaw4q6vbmjj-1" x1="12" y1="21.58" x2="12" y2="23.5"/><line class="cls-a976vz9jr2mbaw4q6vbmjj-1" x1="23.5" y1="12" x2="21.58" y2="12"/><line class="cls-a976vz9jr2mbaw4q6vbmjj-1" x1="2.42" y1="12" x2="0.5" y2="12"/><line class="cls-a976vz9jr2mbaw4q6vbmjj-1" x1="12" y1="0.5" x2="12" y2="2.42"/><line class="cls-a976vz9jr2mbaw4q6vbmjj-1" x1="12" y1="21.58" x2="12" y2="23.5"/><line class="cls-a976vz9jr2mbaw4q6vbmjj-1" x1="23.5" y1="12" x2="21.58" y2="12"/><line class="cls-a976vz9jr2mbaw4q6vbmjj-1" x1="2.42" y1="12" x2="0.5" y2="12"/><line class="cls-a976vz9jr2mbaw4q6vbmjj-1" x1="20.13" y1="3.87" x2="18.78" y2="5.22"/><line class="cls-a976vz9jr2mbaw4q6vbmjj-1" x1="5.22" y1="18.78" x2="3.87" y2="20.13"/><line class="cls-a976vz9jr2mbaw4q6vbmjj-1" x1="20.13" y1="20.13" x2="18.78" y2="18.78"/><line class="cls-a976vz9jr2mbaw4q6vbmjj-1" x1="5.22" y1="5.22" x2="3.87" y2="3.87"/><line class="cls-a976vz9jr2mbaw4q6vbmjj-1" x1="20.13" y1="3.87" x2="18.78" y2="5.22"/><line class="cls-a976vz9jr2mbaw4q6vbmjj-1" x1="5.22" y1="18.78" x2="3.87" y2="20.13"/><line class="cls-a976vz9jr2mbaw4q6vbmjj-1" x1="20.13" y1="20.13" x2="18.78" y2="18.78"/><line class="cls-a976vz9jr2mbaw4q6vbmjj-1" x1="5.22" y1="5.22" x2="3.87" y2="3.87"/><circle class="cls-a976vz9jr2mbaw4q6vbmjj-1" cx="12" cy="12" r="6.71"/></svg>